<svg width="18" height="12" viewBox="0 0 18 12" fill="none" xmlns="http://www.w3.org/2000/svg">
<g id="Calendar">
<path id="Calendar_2" fill-rule="evenodd" clip-rule="evenodd" d="M13.0812 0.595542V1.19923C15.8391 1.3695 17.25 2.33953 17.25 4.08351V8.90785C17.25 10.8479 15.5123 11.8334 12.0928 11.8334H5.90725C2.48768 11.8334 0.75 10.8479 0.75 8.90785V4.08351C0.75 2.92258 1.37174 2.09186 2.6471 1.60685C2.84814 1.51952 3.10824 1.51342 3.31852 1.59111C3.52879 1.66879 3.65296 1.81686 3.63905 1.97332C3.62514 2.12978 3.47555 2.26765 3.2529 2.32921C2.40797 2.64911 2.00942 3.20636 2.00942 4.08351V4.23831H13.6391C13.9869 4.23831 14.2688 4.4208 14.2688 4.64592C14.2688 4.87104 13.9869 5.05354 13.6391 5.05354H2.00942V8.90785C2.00942 10.3887 3.1413 11.0027 5.90725 11.013H12.0928C14.8188 11.013 15.9826 10.3835 15.9826 8.90269V4.07835C15.9826 2.78842 15.0978 2.1641 13.0812 2.01447V2.4066C13.0347 2.61562 12.7519 2.7682 12.4259 2.76024C12.1 2.75228 11.8358 2.58633 11.8138 2.37565V0.559424C11.8199 0.450355 11.8934 0.347446 12.0178 0.273739C12.1422 0.200032 12.307 0.161686 12.4754 0.167285C12.8225 0.181104 13.0904 0.370466 13.0812 0.595542ZM5.98304 2.67088C5.86322 2.74747 5.70099 2.7898 5.53261 2.78842C5.18795 2.78279 4.91437 2.5988 4.91884 2.37565V0.595542C4.95508 0.386715 5.2279 0.228842 5.55254 0.228842C5.87717 0.228842 6.14999 0.386715 6.18623 0.595542V1.15795H9.78913C10.1369 1.15795 10.4188 1.34045 10.4188 1.56557C10.4188 1.79069 10.1369 1.97319 9.78913 1.97319H6.17029V2.38081C6.1703 2.48981 6.10287 2.59428 5.98304 2.67088ZM12.842 6.35895C12.4018 6.35895 12.0449 6.58996 12.0449 6.87492C12.0449 7.15989 12.4018 7.3909 12.842 7.3909C13.2823 7.3909 13.6391 7.15989 13.6391 6.87492C13.6391 6.73718 13.5541 6.60515 13.4029 6.50824C13.2516 6.41133 13.0468 6.35757 12.8341 6.35895H12.842ZM8.21884 6.87492C8.21884 6.58996 8.57572 6.35895 9.01594 6.35895C9.45617 6.35895 9.81304 6.58996 9.81304 6.87492C9.81304 7.15989 9.45617 7.3909 9.01594 7.3909C8.57572 7.3909 8.21884 7.15989 8.21884 6.87492ZM5.19783 6.35895C4.7576 6.35895 4.40072 6.58996 4.40072 6.87492C4.40072 7.15989 4.7576 7.3909 5.19783 7.3909C5.63805 7.3909 5.99493 7.15989 5.99493 6.87492C5.99494 6.73718 5.90986 6.60515 5.75865 6.50824C5.60744 6.41133 5.40264 6.35757 5.18986 6.35895H5.19783ZM12.0449 8.96461C12.0449 8.67965 12.4018 8.44864 12.842 8.44864H12.8341C13.0468 8.44726 13.2516 8.50101 13.4029 8.59793C13.5541 8.69484 13.6391 8.82687 13.6391 8.96461C13.6391 9.24957 13.2823 9.48058 12.842 9.48058C12.4018 9.48058 12.0449 9.24957 12.0449 8.96461ZM9.01594 8.44864C8.57572 8.44864 8.21884 8.67965 8.21884 8.96461C8.21884 9.24957 8.57572 9.48058 9.01594 9.48058C9.45617 9.48058 9.81304 9.24957 9.81304 8.96461C9.81304 8.67965 9.45617 8.44864 9.01594 8.44864ZM4.40072 8.96461C4.40072 8.67965 4.7576 8.44864 5.19783 8.44864H5.18986C5.40264 8.44726 5.60744 8.50101 5.75865 8.59793C5.90986 8.69484 5.99494 8.82687 5.99493 8.96461C5.99493 9.24957 5.63805 9.48058 5.19783 9.48058C4.7576 9.48058 4.40072 9.24957 4.40072 8.96461Z" fill="#616164"/>
</g>
</svg>
