<svg width="20" height="14" viewBox="0 0 20 14" fill="none" xmlns="http://www.w3.org/2000/svg">
<g id="&#229;&#149;&#134;&#229;&#174;&#182;&#229;&#156;&#176;&#229;&#157;&#128;&#229;&#186;&#147;">
<path id="Combined Shape" fill-rule="evenodd" clip-rule="evenodd" d="M5.11247 4.00008C5.11247 6.77786 10.0014 9.27786 10.0014 9.27786C10.0014 9.27786 14.8903 6.77786 14.8903 4.00008C14.8903 2.15913 12.7014 0.666748 10.0014 0.666748C7.3013 0.666748 5.11247 2.15913 5.11247 4.00008ZM9.98804 10.2434L9.96925 10.2344C9.7235 10.1166 8.1111 9.3438 6.60874 8.16674H4.51506C4.10511 8.16674 3.72247 8.30688 3.49609 8.53991L0.257935 11.8732C0.125378 12.0097 0.0546875 12.1697 0.0546875 12.3334C0.0546875 12.7936 0.601894 13.1667 1.27691 13.1667H18.712C18.9542 13.1667 19.1909 13.1177 19.3921 13.0259C19.953 12.7698 20.1032 12.2522 19.7276 11.8697L16.454 8.53643C16.2271 8.30541 15.8462 8.16674 15.4384 8.16674H13.394C11.8916 9.3438 10.2792 10.1166 10.0335 10.2344C10.0117 10.2448 10.0007 10.2501 10.0014 10.2501C10.0018 10.2501 9.99726 10.2479 9.98804 10.2434ZM5.11247 12.3335V11.5001H14.8903V12.3335H5.11247ZM10.0014 5.25008C11.0139 5.25008 11.8347 4.69044 11.8347 4.00008C11.8347 3.30973 11.0139 2.75008 10.0014 2.75008C8.98884 2.75008 8.16803 3.30973 8.16803 4.00008C8.16803 4.69044 8.98884 5.25008 10.0014 5.25008Z" fill="#616164"/>
</g>
</svg>
