<svg width="18" height="19" viewBox="0 0 18 19" fill="none" xmlns="http://www.w3.org/2000/svg">
<rect width="18" height="19" fill="#E5E5E5"/>
<g id="08_BooksDetail_Description" clip-path="url(#clip0_0_1)">
<rect width="1920" height="4282" transform="translate(-279 -850)" fill="white"/>
<rect id="pageBackground" x="-299" y="-848" width="1920" height="3736" fill="white"/>
<g id="CONTENT">
<g id="productMain">
<g id="texts">
<g id="btnBuy">
<rect id="background" x="-149" y="-23" width="183" height="65" rx="10" fill="#EBEBEB"/>
<path id="+" d="M9.566 0.885986C10.1183 0.885986 10.566 1.3337 10.566 1.88599V7.26599C10.566 7.81827 11.0137 8.26599 11.566 8.26599H16.568C17.1203 8.26599 17.568 8.7137 17.568 9.26599V10.56C17.568 11.1123 17.1203 11.56 16.568 11.56H11.566C11.0137 11.56 10.566 12.0077 10.566 12.56V17.976C10.566 18.5283 10.1183 18.976 9.566 18.976H7.966C7.41372 18.976 6.966 18.5283 6.966 17.976V12.56C6.966 12.0077 6.51828 11.56 5.966 11.56H0.999999C0.447715 11.56 0 11.1123 0 10.56V9.26599C0 8.7137 0.447715 8.26599 1 8.26599H5.966C6.51829 8.26599 6.966 7.81827 6.966 7.26599V1.88599C6.966 1.3337 7.41372 0.885986 7.966 0.885986H9.566Z" fill="#8D28AD"/>
</g>
</g>
</g>
</g>
</g>
<defs>
<clipPath id="clip0_0_1">
<rect width="1920" height="4282" fill="white" transform="translate(-279 -850)"/>
</clipPath>
</defs>
</svg>
