<svg width="44" height="60" viewBox="0 0 44 60" fill="none" xmlns="http://www.w3.org/2000/svg">
<rect width="44" height="60" fill="#E5E5E5"/>
<g clip-path="url(#clip0_0_1)">
<rect width="1920" height="9289" transform="translate(-998 -2226)" fill="white"/>
<rect x="-998" y="-2226" width="1920" height="7910" fill="white"/>
<rect x="-999" y="-56" width="1920" height="314" fill="#FCF8FD"/>
<rect x="-38" y="-28" width="405" height="258" fill="#FCF8FD"/>
<path d="M31.5979 42.0495L34.3417 37.5973L39.2931 35.9086L39.8416 30.7082L43.5669 27.0408L41.7957 22.1182L43.5669 17.1955L39.8417 13.5281L39.2932 8.32781L34.3418 6.63914L31.5981 2.18684L26.4084 2.81344L21.9999 0L17.5915 2.81367L12.4019 2.18707L9.65822 6.63926L4.70681 8.32793L4.15826 13.5282L0.432983 17.1956L2.20415 22.1183L0.432983 27.041L4.15814 30.7083L4.70669 35.9087L9.6581 37.5974L12.4018 42.0496L17.5915 41.4231L21.9999 44.2366L26.4084 41.4231L31.5979 42.0495ZM6.83248 22.1183C6.83248 13.755 13.6366 6.95086 21.9999 6.95086C30.3633 6.95086 37.1674 13.755 37.1674 22.1183C37.1674 30.4816 30.3633 37.2858 21.9999 37.2858C13.6366 37.2858 6.83248 30.4816 6.83248 22.1183Z" fill="#8D28AD"/>
<path d="M22.0001 10.4688C15.5764 10.4688 10.3505 15.6947 10.3505 22.1184C10.3505 28.542 15.5764 33.768 22.0001 33.768C28.4237 33.768 33.6497 28.542 33.6497 22.1184C33.6497 15.6947 28.4237 10.4688 22.0001 10.4688Z" fill="#8D28AD"/>
<path d="M16.7617 45.0665L10.5882 45.8118L7.32654 40.5188L6.21771 40.1407L1.43494 55.0899L10.0453 54.6164L16.7818 60L20.746 47.6095L16.7617 45.0665Z" fill="#8D28AD"/>
<path d="M36.6735 40.5189L33.4117 45.8118L27.2384 45.0665L23.254 47.6095L27.2182 60L33.9548 54.6164L42.5651 55.0899L37.7824 40.1407L36.6735 40.5189Z" fill="#8D28AD"/>
</g>
<defs>
<clipPath id="clip0_0_1">
<rect width="1920" height="9289" fill="white" transform="translate(-998 -2226)"/>
</clipPath>
</defs>
</svg>
