<svg width="58" height="60" viewBox="0 0 58 60" fill="none" xmlns="http://www.w3.org/2000/svg">
<rect width="58" height="60" fill="#E5E5E5"/>
<g clip-path="url(#clip0_0_1)">
<rect width="1920" height="9289" transform="translate(-1396 -2228)" fill="white"/>
<rect x="-1396" y="-2228" width="1920" height="7910" fill="white"/>
<rect x="-1397" y="-58" width="1920" height="314" fill="#FCF8FD"/>
<rect x="-31" y="-30" width="405" height="258" fill="#FCF8FD"/>
<path d="M45.524 18.0074L29.3076 11.8985C29.1096 11.8239 28.8914 11.8239 28.6935 11.8985L12.4764 18.0074C12.2032 18.1117 12.0327 18.3898 12.0615 18.6834C12.741 25.5919 15.2546 33.7121 18.6212 39.8749C21.956 45.9793 25.836 49.6238 29.0002 49.6238C32.1642 49.6238 36.0442 45.9793 39.379 39.8749C42.7456 33.7121 45.2592 25.5919 45.9387 18.6832C45.9682 18.3851 45.8014 18.1134 45.524 18.0074Z" fill="#8D28AD"/>
<path d="M52.9567 9.84267L31.6135 0.544556C29.947 -0.181519 28.0537 -0.181519 26.3871 0.544556L5.04392 9.84267C2.29159 10.8943 0.684693 13.6545 0.872357 16.5949C2.09602 35.7762 14.6045 60 29.0005 60C43.3966 60 55.8798 36.7145 57.1287 16.5949C57.3112 13.6496 55.7133 10.896 52.9567 9.84267ZM50.1931 19.1017C48.7704 33.5661 39.8468 53.8985 29.0003 53.8985C18.1537 53.8985 9.23002 33.5661 7.80736 19.1017C7.58999 16.8922 8.8767 14.8066 10.9506 14.014L27.2408 7.78948C27.8072 7.57297 28.404 7.46481 29.0003 7.46481H29.0005C29.5971 7.46481 30.1932 7.57297 30.7598 7.78948L47.0496 14.014C49.1267 14.8078 50.4106 16.889 50.1931 19.1017Z" fill="#8D28AD"/>
</g>
<defs>
<clipPath id="clip0_0_1">
<rect width="1920" height="9289" fill="white" transform="translate(-1396 -2228)"/>
</clipPath>
</defs>
</svg>
