<svg width="34" height="29" viewBox="0 0 34 29" fill="none" xmlns="http://www.w3.org/2000/svg">
<g id="cart">
<g id="basket">
<path id="Vector" d="M31.7512 9.28938H28.0242L22.43 0.890425C22.2074 0.556795 21.8614 0.325239 21.4681 0.246696C21.0749 0.168153 20.6665 0.249058 20.3329 0.471611C19.9992 0.694165 19.7677 1.04014 19.6891 1.43342C19.6106 1.8267 19.6915 2.23507 19.914 2.5687L24.391 9.28938H8.87219L13.3536 2.5687C13.5762 2.23507 13.6571 1.8267 13.5786 1.43342C13.5 1.04014 13.2685 0.694165 12.9348 0.471611C12.6012 0.249058 12.1928 0.168153 11.7995 0.246696C11.4063 0.325239 11.0603 0.556795 10.8377 0.890425L5.23895 9.28938H1.51196C1.11096 9.28938 0.726391 9.44867 0.442843 9.73222C0.159295 10.0158 0 10.4003 0 10.8013C0 11.2023 0.159295 11.5869 0.442843 11.8705C0.726391 12.154 1.11096 12.3133 1.51196 12.3133H3.02392V24.409C3.02392 25.612 3.50181 26.7657 4.35245 27.6164C5.2031 28.467 6.35682 28.9449 7.55981 28.9449H25.7033C26.9063 28.9449 28.0601 28.467 28.9107 27.6164C29.7613 26.7657 30.2392 25.612 30.2392 24.409V12.3133H31.7512C32.1522 12.3133 32.5368 12.154 32.8203 11.8705C33.1039 11.5869 33.2632 11.2023 33.2632 10.8013C33.2632 10.4003 33.1039 10.0158 32.8203 9.73222C32.5368 9.44867 32.1522 9.28938 31.7512 9.28938ZM27.2153 24.409C27.2153 24.81 27.056 25.1946 26.7725 25.4781C26.4889 25.7617 26.1043 25.921 25.7033 25.921H7.55981C7.15881 25.921 6.77424 25.7617 6.49069 25.4781C6.20714 25.1946 6.04785 24.81 6.04785 24.409V12.3133H27.2153V24.409Z" fill="white"/>
<path id="Vector_2" d="M10.5832 23.6531C10.9842 23.6531 11.3688 23.4938 11.6524 23.2102C11.9359 22.9267 12.0952 22.5421 12.0952 22.1411V16.0933C12.0952 15.6923 11.9359 15.3077 11.6524 15.0241C11.3688 14.7406 10.9842 14.5813 10.5832 14.5813C10.1823 14.5813 9.79768 14.7406 9.51413 15.0241C9.23058 15.3077 9.07129 15.6923 9.07129 16.0933V22.1411C9.07129 22.5421 9.23058 22.9267 9.51413 23.2102C9.79768 23.4938 10.1823 23.6531 10.5832 23.6531Z" fill="white"/>
<path id="Vector_3" d="M16.6311 23.6531C17.0321 23.6531 17.4167 23.4938 17.7002 23.2102C17.9838 22.9267 18.1431 22.5421 18.1431 22.1411V16.0933C18.1431 15.6923 17.9838 15.3077 17.7002 15.0241C17.4167 14.7406 17.0321 14.5813 16.6311 14.5813C16.2301 14.5813 15.8455 14.7406 15.562 15.0241C15.2784 15.3077 15.1191 15.6923 15.1191 16.0933V22.1411C15.1191 22.5421 15.2784 22.9267 15.562 23.2102C15.8455 23.4938 16.2301 23.6531 16.6311 23.6531Z" fill="white"/>
<path id="Vector_4" d="M22.679 23.6531C23.08 23.6531 23.4645 23.4938 23.7481 23.2102C24.0316 22.9267 24.1909 22.5421 24.1909 22.1411V16.0933C24.1909 15.6923 24.0316 15.3077 23.7481 15.0241C23.4645 14.7406 23.08 14.5813 22.679 14.5813C22.278 14.5813 21.8934 14.7406 21.6098 15.0241C21.3263 15.3077 21.167 15.6923 21.167 16.0933V22.1411C21.167 22.5421 21.3263 22.9267 21.6098 23.2102C21.8934 23.4938 22.278 23.6531 22.679 23.6531Z" fill="white"/>
</g>
</g>
</svg>
