<svg width="162" height="22" viewBox="0 0 162 22" fill="none" xmlns="http://www.w3.org/2000/svg">
<g id="stars">
<path id="star" d="M10.7125 0.765294L7.78319 6.45365L1.22918 7.36877C0.053853 7.53204 -0.417174 8.91975 0.435161 9.71458L5.17683 14.1398L4.05534 20.391C3.85347 21.5209 5.09609 22.3673 6.13683 21.8389L12 18.8873L17.8632 21.8389C18.9039 22.363 20.1465 21.5209 19.9447 20.391L18.8232 14.1398L23.5648 9.71458C24.4172 8.91975 23.9461 7.53204 22.7708 7.36877L16.2168 6.45365L13.2875 0.765294C12.7626 -0.248643 11.2419 -0.261532 10.7125 0.765294Z" fill="#FF7A00"/>
<path id="star_2" d="M45.1589 0.765294L42.1075 6.45365L35.2804 7.36877C34.0561 7.53204 33.5654 8.91975 34.4533 9.71458L39.3925 14.1398L38.2243 20.391C38.014 21.5209 39.3084 22.3673 40.3925 21.8389L46.5 18.8873L52.6075 21.8389C53.6916 22.363 54.986 21.5209 54.7757 20.391L53.6075 14.1398L58.5467 9.71458C59.4346 8.91975 58.9439 7.53204 57.7196 7.36877L50.8925 6.45365L47.8411 0.765294C47.2944 -0.248643 45.7103 -0.261532 45.1589 0.765294Z" fill="#FF7A00"/>
<path id="star_3" d="M79.7125 0.765294L76.7832 6.45365L70.2292 7.36877C69.0539 7.53204 68.5828 8.91975 69.4352 9.71458L74.1768 14.1398L73.0553 20.391C72.8535 21.5209 74.0961 22.3673 75.1368 21.8389L81 18.8873L86.8632 21.8389C87.9039 22.363 89.1465 21.5209 88.9447 20.391L87.8232 14.1398L92.5648 9.71458C93.4172 8.91975 92.9461 7.53204 91.7708 7.36877L85.2168 6.45365L82.2875 0.765294C81.7626 -0.248643 80.2419 -0.261532 79.7125 0.765294Z" fill="#FF7A00"/>
<path id="star_4" d="M113.713 0.765294L110.783 6.45365L104.229 7.36877C103.054 7.53204 102.583 8.91975 103.435 9.71458L108.177 14.1398L107.055 20.391C106.853 21.5209 108.096 22.3673 109.137 21.8389L115 18.8873L120.863 21.8389C121.904 22.363 123.147 21.5209 122.945 20.391L121.823 14.1398L126.565 9.71458C127.417 8.91975 126.946 7.53204 125.771 7.36877L119.217 6.45365L116.287 0.765294C115.763 -0.248643 114.242 -0.261532 113.713 0.765294Z" fill="#FF7A00"/>
<path id="star_5" d="M148.159 0.765294L145.107 6.45365L138.28 7.36877C137.056 7.53204 136.565 8.91975 137.453 9.71458L142.393 14.1398L141.224 20.391C141.014 21.5209 142.308 22.3673 143.393 21.8389L149.5 18.8873L155.607 21.8389C156.692 22.363 157.986 21.5209 157.776 20.391L156.607 14.1398L161.547 9.71458C162.435 8.91975 161.944 7.53204 160.72 7.36877L153.893 6.45365L150.841 0.765294C150.294 -0.248643 148.71 -0.261532 148.159 0.765294Z" fill="#E7E7E7"/>
</g>
</svg>
