<svg width="109" height="109" viewBox="0 0 109 109" fill="none" xmlns="http://www.w3.org/2000/svg">
<g id="btnAddtoCart">
<g id="background" filter="url(#filter0_d_31_1036)">
<circle cx="28.5" cy="28.5" r="28.5" transform="matrix(-1 0 0 1 83 11.9998)" fill="#8D28AD"/>
</g>
<g id="cart">
<g id="basket">
<path id="Vector" d="M65.9091 36.5454H63.22L59.1836 30.4854C59.0231 30.2446 58.7734 30.0776 58.4897 30.0209C58.2059 29.9642 57.9113 30.0226 57.6705 30.1832C57.4298 30.3437 57.2628 30.5934 57.2061 30.8771C57.1494 31.1609 57.2078 31.4555 57.3684 31.6963L60.5985 36.5454H49.4015L52.6349 31.6963C52.7955 31.4555 52.8539 31.1609 52.7972 30.8771C52.7405 30.5934 52.5734 30.3437 52.3327 30.1832C52.092 30.0226 51.7974 29.9642 51.5136 30.0209C51.2298 30.0776 50.9802 30.2446 50.8196 30.4854L46.78 36.5454H44.0909C43.8016 36.5454 43.5241 36.6603 43.3195 36.8649C43.1149 37.0695 43 37.3469 43 37.6363C43 37.9256 43.1149 38.2031 43.3195 38.4077C43.5241 38.6122 43.8016 38.7272 44.0909 38.7272H45.1818V47.4544C45.1818 48.3224 45.5266 49.1549 46.1404 49.7686C46.7541 50.3824 47.5866 50.7272 48.4545 50.7272H61.5455C62.4134 50.7272 63.2459 50.3824 63.8596 49.7686C64.4734 49.1549 64.8182 48.3224 64.8182 47.4544V38.7272H65.9091C66.1984 38.7272 66.4759 38.6122 66.6805 38.4077C66.8851 38.2031 67 37.9256 67 37.6363C67 37.3469 66.8851 37.0695 66.6805 36.8649C66.4759 36.6603 66.1984 36.5454 65.9091 36.5454ZM62.6364 47.4544C62.6364 47.7438 62.5214 48.0213 62.3168 48.2258C62.1123 48.4304 61.8348 48.5454 61.5455 48.5454H48.4545C48.1652 48.5454 47.8877 48.4304 47.6832 48.2258C47.4786 48.0213 47.3636 47.7438 47.3636 47.4544V38.7272H62.6364V47.4544Z" fill="white"/>
<path id="Vector_2" d="M50.6363 46.909C50.9256 46.909 51.2031 46.794 51.4077 46.5895C51.6123 46.3849 51.7272 46.1074 51.7272 45.8181V41.4544C51.7272 41.1651 51.6123 40.8876 51.4077 40.683C51.2031 40.4785 50.9256 40.3635 50.6363 40.3635C50.347 40.3635 50.0695 40.4785 49.8649 40.683C49.6603 40.8876 49.5454 41.1651 49.5454 41.4544V45.8181C49.5454 46.1074 49.6603 46.3849 49.8649 46.5895C50.0695 46.794 50.347 46.909 50.6363 46.909Z" fill="white"/>
<path id="Vector_3" d="M55.0001 46.909C55.2894 46.909 55.5669 46.794 55.7715 46.5895C55.9761 46.3849 56.091 46.1074 56.091 45.8181V41.4544C56.091 41.1651 55.9761 40.8876 55.7715 40.683C55.5669 40.4785 55.2894 40.3635 55.0001 40.3635C54.7108 40.3635 54.4333 40.4785 54.2287 40.683C54.0241 40.8876 53.9092 41.1651 53.9092 41.4544V45.8181C53.9092 46.1074 54.0241 46.3849 54.2287 46.5895C54.4333 46.794 54.7108 46.909 55.0001 46.909Z" fill="white"/>
<path id="Vector_4" d="M59.3634 46.909C59.6527 46.909 59.9302 46.794 60.1348 46.5895C60.3394 46.3849 60.4543 46.1074 60.4543 45.8181V41.4544C60.4543 41.1651 60.3394 40.8876 60.1348 40.683C59.9302 40.4785 59.6527 40.3635 59.3634 40.3635C59.074 40.3635 58.7966 40.4785 58.592 40.683C58.3874 40.8876 58.2725 41.1651 58.2725 41.4544V45.8181C58.2725 46.1074 58.3874 46.3849 58.592 46.5895C58.7966 46.794 59.074 46.909 59.3634 46.909Z" fill="white"/>
</g>
</g>
</g>
<defs>
<filter id="filter0_d_31_1036" x="0" y="-0.000244141" width="109" height="109" filterUnits="userSpaceOnUse" color-interpolation-filters="sRGB">
<feFlood flood-opacity="0" result="BackgroundImageFix"/>
<feColorMatrix in="SourceAlpha" type="matrix" values="0 0 0 0 0 0 0 0 0 0 0 0 0 0 0 0 0 0 127 0" result="hardAlpha"/>
<feOffset dy="14"/>
<feGaussianBlur stdDeviation="13"/>
<feColorMatrix type="matrix" values="0 0 0 0 0.154793 0 0 0 0 0.0515625 0 0 0 0 0.1875 0 0 0 0.25 0"/>
<feBlend mode="normal" in2="BackgroundImageFix" result="effect1_dropShadow_31_1036"/>
<feBlend mode="normal" in="SourceGraphic" in2="effect1_dropShadow_31_1036" result="shape"/>
</filter>
</defs>
</svg>
